<mxfile host="Electron" agent="Mozilla/5.0 (Windows NT 10.0; Win64; x64) AppleWebKit/537.36 (KHTML, like Gecko) draw.io/28.0.4 Chrome/138.0.7204.97 Electron/37.2.1 Safari/537.36" version="28.0.4">
  <diagram name="Page-1" id="Jb5e92vAJj5C5_rnJtpt">
    <mxGraphModel dx="1017" dy="685" grid="1" gridSize="10" guides="1" tooltips="1" connect="1" arrows="1" fold="1" page="1" pageScale="1" pageWidth="1800" pageHeight="1200" math="0" shadow="0">
      <root>
        <mxCell id="0" />
        <mxCell id="1" parent="0" />
        <mxCell id="4q5monodzMb2qPlcLT-6-57" value="Alt" style="rounded=1;whiteSpace=wrap;html=1;absoluteArcSize=1;fontFamily=Helvetica;fontSize=11;labelBackgroundColor=none;fillColor=#f8cecc;strokeColor=#b85450;" vertex="1" parent="1">
          <mxGeometry x="80" y="480" width="40" height="20" as="geometry" />
        </mxCell>
        <mxCell id="4q5monodzMb2qPlcLT-6-19" style="edgeStyle=orthogonalEdgeStyle;shape=connector;rounded=0;orthogonalLoop=1;jettySize=auto;html=1;exitX=1;exitY=0.25;exitDx=0;exitDy=0;entryX=0;entryY=0.25;entryDx=0;entryDy=0;strokeColor=#6c8ebf;align=center;verticalAlign=middle;fontFamily=Helvetica;fontSize=11;fontColor=default;labelBackgroundColor=default;endArrow=none;endFill=0;fillColor=#dae8fc;" edge="1" parent="1" source="4q5monodzMb2qPlcLT-6-1" target="4q5monodzMb2qPlcLT-6-4">
          <mxGeometry relative="1" as="geometry" />
        </mxCell>
        <mxCell id="4q5monodzMb2qPlcLT-6-20" style="edgeStyle=orthogonalEdgeStyle;shape=connector;rounded=0;orthogonalLoop=1;jettySize=auto;html=1;exitX=1;exitY=0.75;exitDx=0;exitDy=0;entryX=0;entryY=0.75;entryDx=0;entryDy=0;strokeColor=#b85450;align=center;verticalAlign=middle;fontFamily=Helvetica;fontSize=11;fontColor=default;labelBackgroundColor=default;endArrow=none;endFill=0;fillColor=#f8cecc;" edge="1" parent="1" source="4q5monodzMb2qPlcLT-6-1" target="4q5monodzMb2qPlcLT-6-4">
          <mxGeometry relative="1" as="geometry" />
        </mxCell>
        <mxCell id="4q5monodzMb2qPlcLT-6-30" value="CAN" style="edgeStyle=orthogonalEdgeStyle;shape=connector;rounded=1;orthogonalLoop=1;jettySize=auto;html=1;exitX=0.5;exitY=0;exitDx=0;exitDy=0;entryX=0.5;entryY=0;entryDx=0;entryDy=0;strokeColor=#d79b00;align=center;verticalAlign=middle;fontFamily=Helvetica;fontSize=11;fontColor=default;labelBackgroundColor=default;endArrow=none;endFill=0;curved=0;fillColor=#ffe6cc;" edge="1" parent="1" source="4q5monodzMb2qPlcLT-6-1" target="4q5monodzMb2qPlcLT-6-3">
          <mxGeometry relative="1" as="geometry" />
        </mxCell>
        <mxCell id="4q5monodzMb2qPlcLT-6-1" value="Processor Device 0" style="rounded=1;whiteSpace=wrap;html=1;absoluteArcSize=1;" vertex="1" parent="1">
          <mxGeometry x="80" y="160" width="80" height="40" as="geometry" />
        </mxCell>
        <mxCell id="4q5monodzMb2qPlcLT-6-23" value="USB" style="edgeStyle=orthogonalEdgeStyle;shape=connector;rounded=0;orthogonalLoop=1;jettySize=auto;html=1;exitX=1;exitY=0.25;exitDx=0;exitDy=0;entryX=0;entryY=0.25;entryDx=0;entryDy=0;strokeColor=#6c8ebf;align=center;verticalAlign=middle;fontFamily=Helvetica;fontSize=11;fontColor=default;labelBackgroundColor=default;endArrow=none;endFill=0;fillColor=#dae8fc;" edge="1" parent="1" source="4q5monodzMb2qPlcLT-6-2" target="4q5monodzMb2qPlcLT-6-5">
          <mxGeometry relative="1" as="geometry" />
        </mxCell>
        <mxCell id="4q5monodzMb2qPlcLT-6-24" value="ALT" style="edgeStyle=orthogonalEdgeStyle;shape=connector;rounded=0;orthogonalLoop=1;jettySize=auto;html=1;exitX=1;exitY=0.75;exitDx=0;exitDy=0;entryX=0;entryY=0.75;entryDx=0;entryDy=0;strokeColor=#b85450;align=center;verticalAlign=middle;fontFamily=Helvetica;fontSize=11;fontColor=default;labelBackgroundColor=default;endArrow=none;endFill=0;fillColor=#f8cecc;" edge="1" parent="1" source="4q5monodzMb2qPlcLT-6-2" target="4q5monodzMb2qPlcLT-6-5">
          <mxGeometry relative="1" as="geometry" />
        </mxCell>
        <mxCell id="4q5monodzMb2qPlcLT-6-2" value="Processor Device 1" style="rounded=1;whiteSpace=wrap;html=1;absoluteArcSize=1;" vertex="1" parent="1">
          <mxGeometry x="320" y="160" width="80" height="40" as="geometry" />
        </mxCell>
        <mxCell id="4q5monodzMb2qPlcLT-6-3" value="Processor Device 2" style="rounded=1;whiteSpace=wrap;html=1;absoluteArcSize=1;" vertex="1" parent="1">
          <mxGeometry x="680" y="160" width="80" height="40" as="geometry" />
        </mxCell>
        <mxCell id="4q5monodzMb2qPlcLT-6-21" style="edgeStyle=orthogonalEdgeStyle;shape=connector;rounded=0;orthogonalLoop=1;jettySize=auto;html=1;exitX=1;exitY=0.25;exitDx=0;exitDy=0;entryX=0;entryY=0.25;entryDx=0;entryDy=0;strokeColor=#6c8ebf;align=center;verticalAlign=middle;fontFamily=Helvetica;fontSize=11;fontColor=default;labelBackgroundColor=default;endArrow=none;endFill=0;fillColor=#dae8fc;" edge="1" parent="1" source="4q5monodzMb2qPlcLT-6-4" target="4q5monodzMb2qPlcLT-6-2">
          <mxGeometry relative="1" as="geometry" />
        </mxCell>
        <mxCell id="4q5monodzMb2qPlcLT-6-22" style="edgeStyle=orthogonalEdgeStyle;shape=connector;rounded=0;orthogonalLoop=1;jettySize=auto;html=1;exitX=1;exitY=0.75;exitDx=0;exitDy=0;entryX=0;entryY=0.75;entryDx=0;entryDy=0;strokeColor=#b85450;align=center;verticalAlign=middle;fontFamily=Helvetica;fontSize=11;fontColor=default;labelBackgroundColor=default;endArrow=none;endFill=0;fillColor=#f8cecc;" edge="1" parent="1" source="4q5monodzMb2qPlcLT-6-4" target="4q5monodzMb2qPlcLT-6-2">
          <mxGeometry relative="1" as="geometry" />
        </mxCell>
        <mxCell id="4q5monodzMb2qPlcLT-6-31" style="edgeStyle=orthogonalEdgeStyle;shape=connector;rounded=0;orthogonalLoop=1;jettySize=auto;html=1;exitX=0.5;exitY=0;exitDx=0;exitDy=0;entryX=0.5;entryY=0;entryDx=0;entryDy=0;strokeColor=#d79b00;align=center;verticalAlign=middle;fontFamily=Helvetica;fontSize=11;fontColor=default;labelBackgroundColor=default;endArrow=none;endFill=0;fillColor=#ffe6cc;" edge="1" parent="1" source="4q5monodzMb2qPlcLT-6-4" target="4q5monodzMb2qPlcLT-6-2">
          <mxGeometry relative="1" as="geometry" />
        </mxCell>
        <mxCell id="4q5monodzMb2qPlcLT-6-4" value="Sensor Device" style="rounded=1;whiteSpace=wrap;html=1;absoluteArcSize=1;" vertex="1" parent="1">
          <mxGeometry x="200" y="160" width="80" height="40" as="geometry" />
        </mxCell>
        <mxCell id="4q5monodzMb2qPlcLT-6-25" style="edgeStyle=orthogonalEdgeStyle;shape=connector;rounded=0;orthogonalLoop=1;jettySize=auto;html=1;exitX=1;exitY=0.25;exitDx=0;exitDy=0;entryX=0;entryY=0.25;entryDx=0;entryDy=0;strokeColor=#6c8ebf;align=center;verticalAlign=middle;fontFamily=Helvetica;fontSize=11;fontColor=default;labelBackgroundColor=default;endArrow=none;endFill=0;fillColor=#dae8fc;" edge="1" parent="1" source="4q5monodzMb2qPlcLT-6-5" target="4q5monodzMb2qPlcLT-6-6">
          <mxGeometry relative="1" as="geometry" />
        </mxCell>
        <mxCell id="4q5monodzMb2qPlcLT-6-26" style="edgeStyle=orthogonalEdgeStyle;shape=connector;rounded=0;orthogonalLoop=1;jettySize=auto;html=1;exitX=1;exitY=0.75;exitDx=0;exitDy=0;entryX=0;entryY=0.75;entryDx=0;entryDy=0;strokeColor=#b85450;align=center;verticalAlign=middle;fontFamily=Helvetica;fontSize=11;fontColor=default;labelBackgroundColor=default;endArrow=none;endFill=0;fillColor=#f8cecc;" edge="1" parent="1" source="4q5monodzMb2qPlcLT-6-5" target="4q5monodzMb2qPlcLT-6-6">
          <mxGeometry relative="1" as="geometry" />
        </mxCell>
        <mxCell id="4q5monodzMb2qPlcLT-6-32" style="edgeStyle=orthogonalEdgeStyle;shape=connector;rounded=0;orthogonalLoop=1;jettySize=auto;html=1;exitX=0.5;exitY=0;exitDx=0;exitDy=0;entryX=0.5;entryY=0;entryDx=0;entryDy=0;strokeColor=#d79b00;align=center;verticalAlign=middle;fontFamily=Helvetica;fontSize=11;fontColor=default;labelBackgroundColor=default;endArrow=none;endFill=0;fillColor=#ffe6cc;" edge="1" parent="1" source="4q5monodzMb2qPlcLT-6-5" target="4q5monodzMb2qPlcLT-6-6">
          <mxGeometry relative="1" as="geometry" />
        </mxCell>
        <mxCell id="4q5monodzMb2qPlcLT-6-5" value="HID&lt;div&gt;Device&lt;/div&gt;" style="rounded=1;whiteSpace=wrap;html=1;absoluteArcSize=1;" vertex="1" parent="1">
          <mxGeometry x="440" y="160" width="80" height="40" as="geometry" />
        </mxCell>
        <mxCell id="4q5monodzMb2qPlcLT-6-27" style="edgeStyle=orthogonalEdgeStyle;shape=connector;rounded=0;orthogonalLoop=1;jettySize=auto;html=1;exitX=1;exitY=0.25;exitDx=0;exitDy=0;entryX=0;entryY=0.25;entryDx=0;entryDy=0;strokeColor=#6c8ebf;align=center;verticalAlign=middle;fontFamily=Helvetica;fontSize=11;fontColor=default;labelBackgroundColor=default;endArrow=none;endFill=0;fillColor=#dae8fc;" edge="1" parent="1" source="4q5monodzMb2qPlcLT-6-6" target="4q5monodzMb2qPlcLT-6-3">
          <mxGeometry relative="1" as="geometry" />
        </mxCell>
        <mxCell id="4q5monodzMb2qPlcLT-6-29" style="edgeStyle=orthogonalEdgeStyle;shape=connector;rounded=0;orthogonalLoop=1;jettySize=auto;html=1;exitX=1;exitY=0.75;exitDx=0;exitDy=0;entryX=0;entryY=0.75;entryDx=0;entryDy=0;strokeColor=#b85450;align=center;verticalAlign=middle;fontFamily=Helvetica;fontSize=11;fontColor=default;labelBackgroundColor=default;endArrow=none;endFill=0;fillColor=#f8cecc;" edge="1" parent="1" source="4q5monodzMb2qPlcLT-6-6" target="4q5monodzMb2qPlcLT-6-3">
          <mxGeometry relative="1" as="geometry" />
        </mxCell>
        <mxCell id="4q5monodzMb2qPlcLT-6-6" value="Output&lt;div&gt;Device&lt;/div&gt;" style="rounded=1;whiteSpace=wrap;html=1;absoluteArcSize=1;" vertex="1" parent="1">
          <mxGeometry x="560" y="160" width="80" height="40" as="geometry" />
        </mxCell>
        <mxCell id="4q5monodzMb2qPlcLT-6-35" value="" style="edgeStyle=orthogonalEdgeStyle;shape=connector;rounded=1;orthogonalLoop=1;jettySize=auto;html=1;exitX=0.5;exitY=0;exitDx=0;exitDy=0;entryX=0.5;entryY=0;entryDx=0;entryDy=0;strokeColor=#d79b00;align=center;verticalAlign=middle;fontFamily=Helvetica;fontSize=11;fontColor=default;labelBackgroundColor=default;endArrow=none;endFill=0;curved=0;fillColor=#ffe6cc;" edge="1" source="4q5monodzMb2qPlcLT-6-36" target="4q5monodzMb2qPlcLT-6-40" parent="1">
          <mxGeometry relative="1" as="geometry" />
        </mxCell>
        <mxCell id="4q5monodzMb2qPlcLT-6-36" value="Processor Device 0" style="rounded=1;whiteSpace=wrap;html=1;absoluteArcSize=1;" vertex="1" parent="1">
          <mxGeometry x="80" y="319.96000000000004" width="80" height="40" as="geometry" />
        </mxCell>
        <mxCell id="4q5monodzMb2qPlcLT-6-37" value="" style="edgeStyle=orthogonalEdgeStyle;shape=connector;rounded=0;orthogonalLoop=1;jettySize=auto;html=1;exitX=1;exitY=0.25;exitDx=0;exitDy=0;entryX=0;entryY=0.25;entryDx=0;entryDy=0;strokeColor=#6c8ebf;align=center;verticalAlign=middle;fontFamily=Helvetica;fontSize=11;fontColor=default;labelBackgroundColor=default;endArrow=none;endFill=0;fillColor=#dae8fc;" edge="1" source="4q5monodzMb2qPlcLT-6-39" target="4q5monodzMb2qPlcLT-6-48" parent="1">
          <mxGeometry relative="1" as="geometry" />
        </mxCell>
        <mxCell id="4q5monodzMb2qPlcLT-6-38" value="" style="edgeStyle=orthogonalEdgeStyle;shape=connector;rounded=0;orthogonalLoop=1;jettySize=auto;html=1;exitX=1;exitY=0.75;exitDx=0;exitDy=0;entryX=0;entryY=0.75;entryDx=0;entryDy=0;strokeColor=#b85450;align=center;verticalAlign=middle;fontFamily=Helvetica;fontSize=11;fontColor=default;labelBackgroundColor=default;endArrow=none;endFill=0;fillColor=#f8cecc;" edge="1" source="4q5monodzMb2qPlcLT-6-39" target="4q5monodzMb2qPlcLT-6-48" parent="1">
          <mxGeometry relative="1" as="geometry" />
        </mxCell>
        <mxCell id="4q5monodzMb2qPlcLT-6-39" value="Processor Device 1" style="rounded=1;whiteSpace=wrap;html=1;absoluteArcSize=1;" vertex="1" parent="1">
          <mxGeometry x="320" y="319.96000000000004" width="80" height="40" as="geometry" />
        </mxCell>
        <mxCell id="4q5monodzMb2qPlcLT-6-40" value="Processor Device 2" style="rounded=1;whiteSpace=wrap;html=1;absoluteArcSize=1;" vertex="1" parent="1">
          <mxGeometry x="680" y="319.96000000000004" width="80" height="40" as="geometry" />
        </mxCell>
        <mxCell id="4q5monodzMb2qPlcLT-6-42" style="edgeStyle=orthogonalEdgeStyle;shape=connector;rounded=0;orthogonalLoop=1;jettySize=auto;html=1;exitX=1;exitY=0.75;exitDx=0;exitDy=0;entryX=0;entryY=0.75;entryDx=0;entryDy=0;strokeColor=#b85450;align=center;verticalAlign=middle;fontFamily=Helvetica;fontSize=11;fontColor=default;labelBackgroundColor=default;endArrow=none;endFill=0;fillColor=#f8cecc;" edge="1" source="4q5monodzMb2qPlcLT-6-44" target="4q5monodzMb2qPlcLT-6-39" parent="1">
          <mxGeometry relative="1" as="geometry" />
        </mxCell>
        <mxCell id="4q5monodzMb2qPlcLT-6-43" style="edgeStyle=orthogonalEdgeStyle;shape=connector;rounded=0;orthogonalLoop=1;jettySize=auto;html=1;exitX=0.5;exitY=0;exitDx=0;exitDy=0;entryX=0.5;entryY=0;entryDx=0;entryDy=0;strokeColor=#d79b00;align=center;verticalAlign=middle;fontFamily=Helvetica;fontSize=11;fontColor=default;labelBackgroundColor=default;endArrow=none;endFill=0;fillColor=#ffe6cc;" edge="1" source="4q5monodzMb2qPlcLT-6-44" target="4q5monodzMb2qPlcLT-6-39" parent="1">
          <mxGeometry relative="1" as="geometry" />
        </mxCell>
        <mxCell id="4q5monodzMb2qPlcLT-6-44" value="Sensor Device" style="rounded=1;whiteSpace=wrap;html=1;absoluteArcSize=1;" vertex="1" parent="1">
          <mxGeometry x="200" y="319.96000000000004" width="80" height="40" as="geometry" />
        </mxCell>
        <mxCell id="4q5monodzMb2qPlcLT-6-45" style="edgeStyle=orthogonalEdgeStyle;shape=connector;rounded=0;orthogonalLoop=1;jettySize=auto;html=1;exitX=1;exitY=0.25;exitDx=0;exitDy=0;entryX=0;entryY=0.25;entryDx=0;entryDy=0;strokeColor=#6c8ebf;align=center;verticalAlign=middle;fontFamily=Helvetica;fontSize=11;fontColor=default;labelBackgroundColor=default;endArrow=none;endFill=0;fillColor=#dae8fc;" edge="1" source="4q5monodzMb2qPlcLT-6-48" target="4q5monodzMb2qPlcLT-6-51" parent="1">
          <mxGeometry relative="1" as="geometry" />
        </mxCell>
        <mxCell id="4q5monodzMb2qPlcLT-6-47" style="edgeStyle=orthogonalEdgeStyle;shape=connector;rounded=0;orthogonalLoop=1;jettySize=auto;html=1;exitX=0.5;exitY=0;exitDx=0;exitDy=0;entryX=0.5;entryY=0;entryDx=0;entryDy=0;strokeColor=#d79b00;align=center;verticalAlign=middle;fontFamily=Helvetica;fontSize=11;fontColor=default;labelBackgroundColor=default;endArrow=none;endFill=0;fillColor=#ffe6cc;" edge="1" source="4q5monodzMb2qPlcLT-6-48" target="4q5monodzMb2qPlcLT-6-51" parent="1">
          <mxGeometry relative="1" as="geometry" />
        </mxCell>
        <mxCell id="4q5monodzMb2qPlcLT-6-48" value="HID&lt;div&gt;Device&lt;/div&gt;" style="rounded=1;whiteSpace=wrap;html=1;absoluteArcSize=1;" vertex="1" parent="1">
          <mxGeometry x="440" y="319.96000000000004" width="80" height="40" as="geometry" />
        </mxCell>
        <mxCell id="4q5monodzMb2qPlcLT-6-49" style="edgeStyle=orthogonalEdgeStyle;shape=connector;rounded=0;orthogonalLoop=1;jettySize=auto;html=1;exitX=1;exitY=0.25;exitDx=0;exitDy=0;entryX=0;entryY=0.25;entryDx=0;entryDy=0;strokeColor=#6c8ebf;align=center;verticalAlign=middle;fontFamily=Helvetica;fontSize=11;fontColor=default;labelBackgroundColor=default;endArrow=none;endFill=0;fillColor=#dae8fc;" edge="1" source="4q5monodzMb2qPlcLT-6-51" target="4q5monodzMb2qPlcLT-6-40" parent="1">
          <mxGeometry relative="1" as="geometry" />
        </mxCell>
        <mxCell id="4q5monodzMb2qPlcLT-6-50" style="edgeStyle=orthogonalEdgeStyle;shape=connector;rounded=0;orthogonalLoop=1;jettySize=auto;html=1;exitX=1;exitY=0.75;exitDx=0;exitDy=0;entryX=0;entryY=0.75;entryDx=0;entryDy=0;strokeColor=#b85450;align=center;verticalAlign=middle;fontFamily=Helvetica;fontSize=11;fontColor=default;labelBackgroundColor=default;endArrow=none;endFill=0;fillColor=#f8cecc;" edge="1" source="4q5monodzMb2qPlcLT-6-51" target="4q5monodzMb2qPlcLT-6-40" parent="1">
          <mxGeometry relative="1" as="geometry" />
        </mxCell>
        <mxCell id="4q5monodzMb2qPlcLT-6-51" value="Output&lt;div&gt;Device&lt;/div&gt;" style="rounded=1;whiteSpace=wrap;html=1;absoluteArcSize=1;" vertex="1" parent="1">
          <mxGeometry x="560" y="319.96000000000004" width="80" height="40" as="geometry" />
        </mxCell>
        <mxCell id="4q5monodzMb2qPlcLT-6-52" value="Hardware Connection" style="text;html=1;align=center;verticalAlign=middle;whiteSpace=wrap;rounded=0;fontFamily=Helvetica;fontSize=11;fontColor=default;labelBackgroundColor=default;" vertex="1" parent="1">
          <mxGeometry x="360" y="100" width="120" height="20" as="geometry" />
        </mxCell>
        <mxCell id="4q5monodzMb2qPlcLT-6-53" value="Configured" style="text;html=1;align=center;verticalAlign=middle;whiteSpace=wrap;rounded=0;fontFamily=Helvetica;fontSize=11;fontColor=default;labelBackgroundColor=default;" vertex="1" parent="1">
          <mxGeometry x="360" y="260" width="120" height="20" as="geometry" />
        </mxCell>
        <mxCell id="4q5monodzMb2qPlcLT-6-61" style="edgeStyle=orthogonalEdgeStyle;shape=connector;rounded=0;orthogonalLoop=1;jettySize=auto;html=1;exitX=1;exitY=0.5;exitDx=0;exitDy=0;strokeColor=#6c8ebf;align=center;verticalAlign=middle;fontFamily=Helvetica;fontSize=11;fontColor=default;labelBackgroundColor=default;endArrow=none;endFill=0;fillColor=#dae8fc;" edge="1" parent="1" source="4q5monodzMb2qPlcLT-6-55">
          <mxGeometry relative="1" as="geometry">
            <mxPoint x="440" y="470" as="targetPoint" />
          </mxGeometry>
        </mxCell>
        <mxCell id="4q5monodzMb2qPlcLT-6-55" value="USB" style="rounded=1;whiteSpace=wrap;html=1;absoluteArcSize=1;fontFamily=Helvetica;fontSize=11;labelBackgroundColor=none;fillColor=#dae8fc;strokeColor=#6c8ebf;" vertex="1" parent="1">
          <mxGeometry x="80" y="460" width="40" height="20" as="geometry" />
        </mxCell>
        <mxCell id="4q5monodzMb2qPlcLT-6-62" style="edgeStyle=orthogonalEdgeStyle;shape=connector;rounded=0;orthogonalLoop=1;jettySize=auto;html=1;exitX=1;exitY=0.5;exitDx=0;exitDy=0;strokeColor=#d79b00;align=center;verticalAlign=middle;fontFamily=Helvetica;fontSize=11;fontColor=default;labelBackgroundColor=default;endArrow=none;endFill=0;fillColor=#ffe6cc;" edge="1" parent="1" source="4q5monodzMb2qPlcLT-6-56">
          <mxGeometry relative="1" as="geometry">
            <mxPoint x="440" y="450" as="targetPoint" />
          </mxGeometry>
        </mxCell>
        <mxCell id="4q5monodzMb2qPlcLT-6-56" value="CAN" style="rounded=1;whiteSpace=wrap;html=1;absoluteArcSize=1;fontFamily=Helvetica;fontSize=11;labelBackgroundColor=none;fillColor=#ffe6cc;strokeColor=#d79b00;" vertex="1" parent="1">
          <mxGeometry x="80" y="440" width="40" height="20" as="geometry" />
        </mxCell>
        <mxCell id="4q5monodzMb2qPlcLT-6-60" style="edgeStyle=orthogonalEdgeStyle;shape=connector;rounded=0;orthogonalLoop=1;jettySize=auto;html=1;exitX=1;exitY=0.5;exitDx=0;exitDy=0;strokeColor=#b85450;align=center;verticalAlign=middle;fontFamily=Helvetica;fontSize=11;fontColor=default;labelBackgroundColor=default;endArrow=none;endFill=0;fillColor=#f8cecc;" edge="1" parent="1" source="4q5monodzMb2qPlcLT-6-57">
          <mxGeometry relative="1" as="geometry">
            <mxPoint x="440" y="490" as="targetPoint" />
          </mxGeometry>
        </mxCell>
        <mxCell id="4q5monodzMb2qPlcLT-6-78" value="" style="group" vertex="1" connectable="0" parent="1">
          <mxGeometry x="160" y="440" width="80" height="220" as="geometry" />
        </mxCell>
        <mxCell id="4q5monodzMb2qPlcLT-6-66" style="edgeStyle=orthogonalEdgeStyle;shape=connector;rounded=0;orthogonalLoop=1;jettySize=auto;html=1;exitX=0.25;exitY=1;exitDx=0;exitDy=0;entryX=0.25;entryY=0;entryDx=0;entryDy=0;strokeColor=#b85450;align=center;verticalAlign=middle;fontFamily=Helvetica;fontSize=11;fontColor=default;labelBackgroundColor=default;endArrow=none;endFill=0;fillColor=#f8cecc;" edge="1" parent="4q5monodzMb2qPlcLT-6-78" source="4q5monodzMb2qPlcLT-6-63" target="4q5monodzMb2qPlcLT-6-65">
          <mxGeometry relative="1" as="geometry" />
        </mxCell>
        <mxCell id="4q5monodzMb2qPlcLT-6-67" style="edgeStyle=orthogonalEdgeStyle;shape=connector;rounded=0;orthogonalLoop=1;jettySize=auto;html=1;exitX=0.5;exitY=1;exitDx=0;exitDy=0;entryX=0.5;entryY=0;entryDx=0;entryDy=0;strokeColor=#6c8ebf;align=center;verticalAlign=middle;fontFamily=Helvetica;fontSize=11;fontColor=default;labelBackgroundColor=default;endArrow=none;endFill=0;fillColor=#dae8fc;" edge="1" parent="4q5monodzMb2qPlcLT-6-78" source="4q5monodzMb2qPlcLT-6-63" target="4q5monodzMb2qPlcLT-6-65">
          <mxGeometry relative="1" as="geometry" />
        </mxCell>
        <mxCell id="4q5monodzMb2qPlcLT-6-68" style="edgeStyle=orthogonalEdgeStyle;shape=connector;rounded=0;orthogonalLoop=1;jettySize=auto;html=1;exitX=0.75;exitY=1;exitDx=0;exitDy=0;entryX=0.75;entryY=0;entryDx=0;entryDy=0;strokeColor=#d79b00;align=center;verticalAlign=middle;fontFamily=Helvetica;fontSize=11;fontColor=default;labelBackgroundColor=default;endArrow=none;endFill=0;fillColor=#ffe6cc;" edge="1" parent="4q5monodzMb2qPlcLT-6-78" source="4q5monodzMb2qPlcLT-6-63" target="4q5monodzMb2qPlcLT-6-65">
          <mxGeometry relative="1" as="geometry" />
        </mxCell>
        <mxCell id="4q5monodzMb2qPlcLT-6-63" value="Dendrite" style="rounded=1;whiteSpace=wrap;html=1;absoluteArcSize=1;fontFamily=Helvetica;fontSize=11;fontColor=default;labelBackgroundColor=default;" vertex="1" parent="4q5monodzMb2qPlcLT-6-78">
          <mxGeometry width="80" height="60" as="geometry" />
        </mxCell>
        <mxCell id="4q5monodzMb2qPlcLT-6-77" style="edgeStyle=orthogonalEdgeStyle;shape=connector;rounded=0;orthogonalLoop=1;jettySize=auto;html=1;exitX=0.5;exitY=1;exitDx=0;exitDy=0;entryX=0.5;entryY=0;entryDx=0;entryDy=0;strokeColor=default;align=center;verticalAlign=middle;fontFamily=Helvetica;fontSize=11;fontColor=default;labelBackgroundColor=default;endArrow=none;endFill=0;" edge="1" parent="4q5monodzMb2qPlcLT-6-78" source="4q5monodzMb2qPlcLT-6-65" target="4q5monodzMb2qPlcLT-6-73">
          <mxGeometry relative="1" as="geometry" />
        </mxCell>
        <mxCell id="4q5monodzMb2qPlcLT-6-65" value="Axon" style="rounded=1;whiteSpace=wrap;html=1;absoluteArcSize=1;fontFamily=Helvetica;fontSize=11;fontColor=default;labelBackgroundColor=default;" vertex="1" parent="4q5monodzMb2qPlcLT-6-78">
          <mxGeometry y="80" width="80" height="40" as="geometry" />
        </mxCell>
        <mxCell id="4q5monodzMb2qPlcLT-6-73" value="Connections" style="swimlane;fontStyle=0;childLayout=stackLayout;horizontal=1;startSize=20;horizontalStack=0;resizeParent=1;resizeParentMax=0;resizeLast=0;collapsible=0;marginBottom=0;whiteSpace=wrap;html=1;rounded=1;container=1;fontFamily=Helvetica;fontSize=11;fontColor=default;labelBackgroundColor=default;" vertex="1" parent="4q5monodzMb2qPlcLT-6-78">
          <mxGeometry y="140" width="80" height="80" as="geometry" />
        </mxCell>
        <mxCell id="4q5monodzMb2qPlcLT-6-74" value="Sensors" style="text;strokeColor=none;fillColor=none;align=left;verticalAlign=middle;spacingLeft=4;spacingRight=4;overflow=hidden;points=[[0,0.5],[1,0.5]];portConstraint=eastwest;rotatable=0;whiteSpace=wrap;html=1;fontFamily=Helvetica;fontSize=11;fontColor=default;labelBackgroundColor=default;" vertex="1" parent="4q5monodzMb2qPlcLT-6-73">
          <mxGeometry y="20" width="80" height="20" as="geometry" />
        </mxCell>
        <mxCell id="4q5monodzMb2qPlcLT-6-75" value="Displays" style="text;strokeColor=none;fillColor=none;align=left;verticalAlign=middle;spacingLeft=4;spacingRight=4;overflow=hidden;points=[[0,0.5],[1,0.5]];portConstraint=eastwest;rotatable=0;whiteSpace=wrap;html=1;fontFamily=Helvetica;fontSize=11;fontColor=default;labelBackgroundColor=default;" vertex="1" parent="4q5monodzMb2qPlcLT-6-73">
          <mxGeometry y="40" width="80" height="20" as="geometry" />
        </mxCell>
        <mxCell id="4q5monodzMb2qPlcLT-6-76" value="HID" style="text;strokeColor=none;fillColor=none;align=left;verticalAlign=middle;spacingLeft=4;spacingRight=4;overflow=hidden;points=[[0,0.5],[1,0.5]];portConstraint=eastwest;rotatable=0;whiteSpace=wrap;html=1;fontFamily=Helvetica;fontSize=11;fontColor=default;labelBackgroundColor=default;" vertex="1" parent="4q5monodzMb2qPlcLT-6-73">
          <mxGeometry y="60" width="80" height="20" as="geometry" />
        </mxCell>
        <mxCell id="4q5monodzMb2qPlcLT-6-90" value="" style="group" vertex="1" connectable="0" parent="1">
          <mxGeometry x="300" y="440" width="80" height="220" as="geometry" />
        </mxCell>
        <mxCell id="4q5monodzMb2qPlcLT-6-80" style="edgeStyle=orthogonalEdgeStyle;shape=connector;rounded=0;orthogonalLoop=1;jettySize=auto;html=1;exitX=0.25;exitY=1;exitDx=0;exitDy=0;entryX=0.25;entryY=0;entryDx=0;entryDy=0;strokeColor=#b85450;align=center;verticalAlign=middle;fontFamily=Helvetica;fontSize=11;fontColor=default;labelBackgroundColor=default;endArrow=none;endFill=0;fillColor=#f8cecc;" edge="1" parent="4q5monodzMb2qPlcLT-6-90" source="4q5monodzMb2qPlcLT-6-83" target="4q5monodzMb2qPlcLT-6-85">
          <mxGeometry relative="1" as="geometry" />
        </mxCell>
        <mxCell id="4q5monodzMb2qPlcLT-6-81" style="edgeStyle=orthogonalEdgeStyle;shape=connector;rounded=0;orthogonalLoop=1;jettySize=auto;html=1;exitX=0.5;exitY=1;exitDx=0;exitDy=0;entryX=0.5;entryY=0;entryDx=0;entryDy=0;strokeColor=#6c8ebf;align=center;verticalAlign=middle;fontFamily=Helvetica;fontSize=11;fontColor=default;labelBackgroundColor=default;endArrow=none;endFill=0;fillColor=#dae8fc;" edge="1" parent="4q5monodzMb2qPlcLT-6-90" source="4q5monodzMb2qPlcLT-6-83" target="4q5monodzMb2qPlcLT-6-85">
          <mxGeometry relative="1" as="geometry" />
        </mxCell>
        <mxCell id="4q5monodzMb2qPlcLT-6-82" style="edgeStyle=orthogonalEdgeStyle;shape=connector;rounded=0;orthogonalLoop=1;jettySize=auto;html=1;exitX=0.75;exitY=1;exitDx=0;exitDy=0;entryX=0.75;entryY=0;entryDx=0;entryDy=0;strokeColor=#d79b00;align=center;verticalAlign=middle;fontFamily=Helvetica;fontSize=11;fontColor=default;labelBackgroundColor=default;endArrow=none;endFill=0;fillColor=#ffe6cc;" edge="1" parent="4q5monodzMb2qPlcLT-6-90" source="4q5monodzMb2qPlcLT-6-83" target="4q5monodzMb2qPlcLT-6-85">
          <mxGeometry relative="1" as="geometry" />
        </mxCell>
        <mxCell id="4q5monodzMb2qPlcLT-6-83" value="Dendrite" style="rounded=1;whiteSpace=wrap;html=1;absoluteArcSize=1;fontFamily=Helvetica;fontSize=11;fontColor=default;labelBackgroundColor=default;" vertex="1" parent="4q5monodzMb2qPlcLT-6-90">
          <mxGeometry width="80" height="60" as="geometry" />
        </mxCell>
        <mxCell id="4q5monodzMb2qPlcLT-6-84" style="edgeStyle=orthogonalEdgeStyle;shape=connector;rounded=0;orthogonalLoop=1;jettySize=auto;html=1;exitX=0.5;exitY=1;exitDx=0;exitDy=0;entryX=0.5;entryY=0;entryDx=0;entryDy=0;strokeColor=default;align=center;verticalAlign=middle;fontFamily=Helvetica;fontSize=11;fontColor=default;labelBackgroundColor=default;endArrow=none;endFill=0;" edge="1" parent="4q5monodzMb2qPlcLT-6-90" source="4q5monodzMb2qPlcLT-6-85" target="4q5monodzMb2qPlcLT-6-86">
          <mxGeometry relative="1" as="geometry" />
        </mxCell>
        <mxCell id="4q5monodzMb2qPlcLT-6-85" value="MCU&lt;div&gt;(Processor)&lt;/div&gt;" style="rounded=1;whiteSpace=wrap;html=1;absoluteArcSize=1;fontFamily=Helvetica;fontSize=11;fontColor=default;labelBackgroundColor=default;" vertex="1" parent="4q5monodzMb2qPlcLT-6-90">
          <mxGeometry y="80" width="80" height="40" as="geometry" />
        </mxCell>
        <mxCell id="4q5monodzMb2qPlcLT-6-86" value="Connections" style="swimlane;fontStyle=0;childLayout=stackLayout;horizontal=1;startSize=20;horizontalStack=0;resizeParent=1;resizeParentMax=0;resizeLast=0;collapsible=0;marginBottom=0;whiteSpace=wrap;html=1;rounded=1;container=1;fontFamily=Helvetica;fontSize=11;fontColor=default;labelBackgroundColor=default;" vertex="1" parent="4q5monodzMb2qPlcLT-6-90">
          <mxGeometry y="140" width="80" height="80" as="geometry" />
        </mxCell>
        <mxCell id="4q5monodzMb2qPlcLT-6-87" value="Sensors" style="text;strokeColor=none;fillColor=none;align=left;verticalAlign=middle;spacingLeft=4;spacingRight=4;overflow=hidden;points=[[0,0.5],[1,0.5]];portConstraint=eastwest;rotatable=0;whiteSpace=wrap;html=1;fontFamily=Helvetica;fontSize=11;fontColor=default;labelBackgroundColor=default;" vertex="1" parent="4q5monodzMb2qPlcLT-6-86">
          <mxGeometry y="20" width="80" height="20" as="geometry" />
        </mxCell>
        <mxCell id="4q5monodzMb2qPlcLT-6-88" value="Displays" style="text;strokeColor=none;fillColor=none;align=left;verticalAlign=middle;spacingLeft=4;spacingRight=4;overflow=hidden;points=[[0,0.5],[1,0.5]];portConstraint=eastwest;rotatable=0;whiteSpace=wrap;html=1;fontFamily=Helvetica;fontSize=11;fontColor=default;labelBackgroundColor=default;" vertex="1" parent="4q5monodzMb2qPlcLT-6-86">
          <mxGeometry y="40" width="80" height="20" as="geometry" />
        </mxCell>
        <mxCell id="4q5monodzMb2qPlcLT-6-89" value="HID" style="text;strokeColor=none;fillColor=none;align=left;verticalAlign=middle;spacingLeft=4;spacingRight=4;overflow=hidden;points=[[0,0.5],[1,0.5]];portConstraint=eastwest;rotatable=0;whiteSpace=wrap;html=1;fontFamily=Helvetica;fontSize=11;fontColor=default;labelBackgroundColor=default;" vertex="1" parent="4q5monodzMb2qPlcLT-6-86">
          <mxGeometry y="60" width="80" height="20" as="geometry" />
        </mxCell>
      </root>
    </mxGraphModel>
  </diagram>
</mxfile>
